# xmcd
#
# Track frame offsets:
# 150
# 13190
# 29425
# 48277
# 59900
# 73877
# 91755
# 104090
# 119255
# 132735
# 150212
# 160722
# 176842
# 199512
# 221505
# 232757
# 244977
# 257612
# 276875
# 289687
#
# Disc length: 4023 seconds
#
# Revision: 1
# Processed by: cddbd v1.5.2PL0 Copyright (c) Steve Scherf et al.
# Submitted via: Easy CD Ripper v2.30
#
DISCID=250fb514
DTITLE=Nina Simone - Blue For You
DYEAR=1997
DGENRE=Blues
TTITLE0=Feeling Good
TTITLE1=My Baby Just Cares For Me
TTITLE2=I Loves You Porgy
TTITLE3=I Put A Spell On You
TTITLE4=I Wish I Knew How It Would Feel
TTITLE5=Blues For Mama
TTITLE6=Don't Let Me Be Misunderstood
TTITLE7=Love Me Or Leave Me
TTITLE8=Nobody's Fault But Mine
TTITLE9=I Shall Be Released
TTITLE10=Ain't Got No - I Got Life
TTITLE11=Here Comes The Sun
TTITLE12=Mr Bojangles
TTITLE13=Just Like A Woman
TTITLE14=The Backlash Blues
TTITLE15=In The Morning
TTITLE16=Go To Hell
TTITLE17=Suzanne
TTITLE18=Since I Fell For You
TTITLE19=To Love Somebody
EXTD=
EXTT0=
EXTT1=
EXTT2=
EXTT3=
EXTT4=
EXTT5=
EXTT6=
EXTT7=
EXTT8=
EXTT9=
EXTT10=
EXTT11=
EXTT12=
EXTT13=
EXTT14=
EXTT15=
EXTT16=
EXTT17=
EXTT18=
EXTT19=
PLAYORDER=
